<svg id="svg" viewBox="0 0 200 220" xmlns="http://www.w3.org/2000/svg">
<path d="M119.948 0H28.0729C12.5687 0 0 12.5584 0 28.05V138.791C0 154.283 12.5687 166.841 28.0729 166.841H119.948C135.452 166.841 148.021 154.283 148.021 138.791V28.05C148.021 12.5584 135.452 0 119.948 0Z" />
<path d="M199.059 191.25V79.05C199.062 75.3657 198.337 71.717 196.927 68.3126C195.518 64.9082 193.45 61.8149 190.842 59.2097C188.235 56.6045 185.139 54.5384 181.732 53.1297C178.325 51.721 174.673 50.9973 170.986 51H158.226V138.822C158.204 148.96 154.164 158.676 146.989 165.845C139.815 173.014 130.09 177.05 119.944 177.072H49.7109V191.25C49.7299 198.701 52.7076 205.84 57.9903 211.1C63.273 216.359 70.4286 219.308 77.8859 219.3H170.986C174.673 219.303 178.325 218.579 181.732 217.17C185.139 215.762 188.235 213.696 190.842 211.09C193.45 208.485 195.518 205.392 196.927 201.987C198.337 198.583 199.062 194.934 199.059 191.25Z" />
</svg>
