<svg id="svg" viewBox="0 0 381 380" xmlns="http://www.w3.org/2000/svg">
    <path d="M376.189 190.025C378.997 190.424 381 193.225 381 196.023C377.792 298.01 293.584 380 190.529 380C81.0583 380 -7.15979 287.612 0.459045 176.825C6.87555 82.837 83.4643 6.84641 177.697 0.447204C242.66 -3.95239 301.203 24.4456 338.896 70.8399L366.565 48.4434C370.576 45.2434 376.19 48.0444 376.19 52.843V140.832C376.19 144.431 372.581 147.232 368.973 146.431L358.945 144.431L343.707 141.231L337.291 140.031L282.759 128.434C277.948 127.235 276.342 121.236 280.353 118.036L311.63 92.8386C279.954 53.6442 229.026 30.045 173.689 36.0456C102.313 43.6454 44.5701 101.238 36.9512 172.429C26.1237 265.617 99.1056 344.807 190.531 344.807C273.536 344.807 341.304 279.615 345.715 198.025V190.426C345.715 186.827 349.323 184.026 352.931 184.827L376.189 190.025Z" />
</svg>